<?xml version="1.0" encoding="UTF-8"?>
<!DOCTYPE svg PUBLIC "-//W3C//DTD SVG 1.1//EN" "http://www.w3.org/Graphics/SVG/1.1/DTD/svg11.dtd">
<!-- Creator: CorelDRAW 2019 (64-Bit) -->
<svg xmlns="http://www.w3.org/2000/svg" xml:space="preserve" width="1.66666in" height="1.66666in" version="1.1" style="shape-rendering:geometricPrecision; text-rendering:geometricPrecision; image-rendering:optimizeQuality; fill-rule:evenodd; clip-rule:evenodd"
viewBox="0 0 1666.66 1666.66"
 xmlns:xlink="http://www.w3.org/1999/xlink"
 xmlns:xodm="http://www.corel.com/coreldraw/odm/2003">
 <defs>
  <style type="text/css">
   <![CDATA[
    .str0 {stroke:#848688;stroke-width:13.33;stroke-miterlimit:2.61313}
    .fil0 {fill:none}
    .fil1 {fill:#848688}
   ]]>
  </style>
 </defs>
 <g id="Layer_x0020_1">
  <metadata id="CorelCorpID_0Corel-Layer"/>
  <rect class="fil0 str0" x="-0.03" y="-0" width="1666.67" height="1666.67"/>
  <g id="_1483603752592">
   <path class="fil1" d="M1357.43 1100.31c-0.23,-0.68 -0.68,-1.36 -0.91,-1.81l-117.48 -170.89c-5.68,-8.18 -17.04,-10.45 -25.22,-4.77 -1.82,1.37 -3.41,2.96 -4.77,4.77l-117.48 170.89c-0.45,0.68 -0.68,1.13 -1.14,1.81 -39.31,73.63 -11.36,164.98 62.27,204.29 58.85,31.36 131.12,20.45 178.16,-26.81 17.5,-17.72 30.22,-39.54 37.5,-63.17 11.81,-37.95 7.72,-79.31 -10.91,-114.3zm-23.86 103.62c-5.68,18.18 -15.45,34.77 -28.63,48.41 -44.77,44.77 -117.48,44.77 -162.25,-0.23 -35.22,-35.45 -43.63,-89.54 -20.68,-133.85l101.81 -148.16 101.8 148.16c14.09,26.36 16.81,57.04 7.95,85.67z"/>
   <path class="fil1" d="M1288.58 1133.26l-0.23 -0.23c-6.13,-7.73 -17.72,-9.32 -25.68,-3.18 -7.95,6.13 -9.32,17.5 -3.18,25.45 16.36,21.36 12.5,52.04 -8.86,68.4 -7.95,6.14 -9.32,17.5 -3.18,25.45 6.13,7.72 17.27,9.31 25.22,3.41 37.27,-28.63 44.31,-82.03 15.91,-119.3z"/>
   <path class="fil1" d="M1265.4 710.14l-0.23 -0.23 -40.22 -55.9 -177.02 -246.1 -40.22 -55.9c-5.68,-8.18 -17.04,-10.23 -25.22,-4.32 -8.18,5.68 -10.23,17.04 -4.32,25.22l0.23 0.22 29.77 41.13 -96.81 69.76c0,0 -0.22,0 -0.22,0.22 0,0.23 -0.23,0 -0.23,0.23l-99.08 71.35 -55.67 40.22 -55.9 40 -337.91 242.7c-44.31,32.04 -70.67,83.4 -70.67,137.93 0,83.17 60.44,154.07 142.48,167.48 9.09,1.59 18.41,2.27 27.72,2.27 35.45,0 69.99,-11.13 98.85,-32.04l299.5 -215.43 248.61 -179.07 97.26 -69.99 29.77 41.13c5.68,8.18 17.04,10.22 25.22,4.32 8.18,-5.91 10.22,-17.04 4.32,-25.22zm-725.81 414.72c-59.76,42.95 -143.16,29.54 -186.34,-30.45 -16.36,-22.72 -25,-49.77 -25.22,-77.72 0,-42.95 20.68,-83.4 55.45,-108.62l56.81 -40.91 367 64.76 -267.69 192.93zm309.05 -222.47l-367 -64.77 168.84 -121.57 63.63 88.4c5.91,8.18 17.27,10 25.45,4.09 8.18,-5.91 10,-17.27 4.09,-25.45l-63.63 -88.4 26.36 -18.86 26.36 37.04c5.91,8.18 17.27,10 25.45,4.09 8.18,-5.91 10,-17.27 4.09,-25.45l-26.59 -36.59 26.36 -18.86 63.63 88.4c5.91,8.18 17.27,10 25.45,4.09 8.18,-5.91 10,-17.27 4.09,-25.45l-63.63 -88.4 26.13 -18.86 26.59 36.81c5.91,8.18 17.27,10 25.45,4.09 8.18,-5.91 10,-17.27 4.09,-25.45l-26.59 -36.81 69.76 -50.22 155.89 216.56 -224.29 161.57zm253.83 -182.7l-155.89 -216.56 82.26 -59.31 156.12 216.79 -82.49 59.08z"/>
  </g>
 </g>
</svg>
