<?xml version="1.0" encoding="UTF-8"?>
<!DOCTYPE svg PUBLIC "-//W3C//DTD SVG 1.1//EN" "http://www.w3.org/Graphics/SVG/1.1/DTD/svg11.dtd">
<!-- Creator: CorelDRAW 2019 (64-Bit) -->
<svg xmlns="http://www.w3.org/2000/svg" xml:space="preserve" width="1.66666in" height="1.66666in" version="1.1" style="shape-rendering:geometricPrecision; text-rendering:geometricPrecision; image-rendering:optimizeQuality; fill-rule:evenodd; clip-rule:evenodd"
viewBox="0 0 1666.66 1666.66"
 xmlns:xlink="http://www.w3.org/1999/xlink"
 xmlns:xodm="http://www.corel.com/coreldraw/odm/2003">
 <defs>
  <style type="text/css">
   <![CDATA[
    .str0 {stroke:#848688;stroke-width:13.33;stroke-miterlimit:2.61313}
    .fil0 {fill:none}
    .fil1 {fill:#848688}
   ]]>
  </style>
 </defs>
 <g id="Layer_x0020_1">
  <metadata id="CorelCorpID_0Corel-Layer"/>
  <rect class="fil0 str0" x="-0.03" y="-0" width="1666.67" height="1666.67"/>
  <g id="_1483602709600">
   <path class="fil1" d="M1287.39 379.04c-10.57,-10.57 -27.71,-10.57 -38.28,0l-354.88 354.89c-66.54,-52.5 -163.26,-48.65 -225.37,11.56l-286.12 203.09c-13.7,9.72 -15.29,29.4 -3.47,41.21l297.85 297.86c12.16,12.16 32.45,10.04 41.83,-4.37l192.64 -295.82c56.54,-58.68 63.03,-148.03 19.39,-213.72l356.41 -356.41c10.57,-10.57 10.57,-27.71 0,-38.28l0 0zm-499.25 372.22c91.66,0 147.97,100.85 99.86,178.88l-161.46 -161.46c18.33,-11.35 39.5,-17.42 61.6,-17.42zm-96.35 474.5l-43.96 -43.96 78.08 -117.11c8.29,-12.44 4.93,-29.25 -7.51,-37.54 -12.44,-8.3 -29.24,-4.93 -37.54,7.51l-72.07 108.11 -168.58 -168.59 242.87 -172.39 172.49 172.49 -163.77 251.48z"/>
  </g>
 </g>
</svg>
