<?xml version="1.0" encoding="UTF-8"?>
<!DOCTYPE svg PUBLIC "-//W3C//DTD SVG 1.1//EN" "http://www.w3.org/Graphics/SVG/1.1/DTD/svg11.dtd">
<!-- Creator: CorelDRAW 2019 (64-Bit) -->
<svg xmlns="http://www.w3.org/2000/svg" xml:space="preserve" width="1.66666in" height="1.66666in" version="1.1" style="shape-rendering:geometricPrecision; text-rendering:geometricPrecision; image-rendering:optimizeQuality; fill-rule:evenodd; clip-rule:evenodd"
viewBox="0 0 1666.66 1666.66"
 xmlns:xlink="http://www.w3.org/1999/xlink"
 xmlns:xodm="http://www.corel.com/coreldraw/odm/2003">
 <defs>
  <style type="text/css">
   <![CDATA[
    .str0 {stroke:#848688;stroke-width:13.33;stroke-miterlimit:2.61313}
    .fil0 {fill:none}
    .fil1 {fill:#848688}
   ]]>
  </style>
 </defs>
 <g id="Layer_x0020_1">
  <metadata id="CorelCorpID_0Corel-Layer"/>
  <rect class="fil0 str0" x="-0.03" y="-0" width="1666.67" height="1666.67"/>
  <g id="_1448045482832">
   <g>
    <g>
     <path class="fil1" d="M1177.78 450.66l-688.9 0c-21.07,0 -38.22,17.15 -38.22,38.22l0 688.89c0,21.07 17.14,38.22 38.22,38.22l688.91 0c21.07,0 38.22,-17.15 38.22,-38.23l0 -688.89c-0,-21.07 -17.14,-38.22 -38.22,-38.22zm12.7 727.11c0,7.01 -5.7,12.71 -12.7,12.71l-688.9 0c-7,0 -12.7,-5.7 -12.7,-12.71l0 -688.89c0,-7.01 5.7,-12.71 12.7,-12.71l688.9 0c7,0 12.7,5.7 12.7,12.71l0 688.89z"/>
    </g>
   </g>
   <g>
    <g>
     <path class="fil1" d="M765.81 747.78l-216.85 -216.85c-4.98,-4.98 -13.06,-4.98 -18.04,0 -4.98,4.98 -4.98,13.06 0,18.04l216.84 216.85c2.49,2.49 5.76,3.74 9.02,3.74 3.26,0 6.53,-1.25 9.02,-3.74 4.98,-4.98 4.98,-13.06 0,-18.04z"/>
    </g>
   </g>
   <g>
    <g>
     <path class="fil1" d="M1161.24 1130.45l-216.84 -216.85c-4.98,-4.98 -13.06,-4.98 -18.04,0 -4.98,4.98 -4.98,13.06 0,18.04l216.84 216.85c2.49,2.49 5.76,3.74 9.02,3.74 3.26,0 6.53,-1.25 9.02,-3.74 4.98,-4.98 4.98,-13.06 0,-18.04z"/>
    </g>
   </g>
   <g>
    <g>
     <path class="fil1" d="M756.8 552.71c-7.05,0 -12.76,5.71 -12.76,12.76l0 178.57 -178.58 0c-7.05,0 -12.76,5.71 -12.76,12.76 0,7.05 5.7,12.76 12.76,12.76l191.33 0c7.05,0 12.76,-5.71 12.76,-12.76l0 -191.33c0,-7.05 -5.7,-12.76 -12.76,-12.76z"/>
    </g>
   </g>
   <g>
    <g>
     <path class="fil1" d="M1113.95 909.87l-191.33 0c-7.05,0 -12.76,5.71 -12.76,12.76l0 191.33c0,7.05 5.7,12.76 12.76,12.76 7.05,0 12.76,-5.71 12.76,-12.76l0 -178.57 178.58 0c7.05,0 12.76,-5.71 12.76,-12.76 0,-7.05 -5.7,-12.76 -12.76,-12.76z"/>
    </g>
   </g>
   <g>
   </g>
   <g>
   </g>
   <g>
   </g>
   <g>
   </g>
   <g>
   </g>
   <g>
   </g>
   <g>
   </g>
   <g>
   </g>
   <g>
   </g>
   <g>
   </g>
   <g>
   </g>
   <g>
   </g>
   <g>
   </g>
   <g>
   </g>
   <g>
   </g>
  </g>
 </g>
</svg>
