<?xml version="1.0" encoding="UTF-8"?>
<!DOCTYPE svg PUBLIC "-//W3C//DTD SVG 1.1//EN" "http://www.w3.org/Graphics/SVG/1.1/DTD/svg11.dtd">
<!-- Creator: CorelDRAW 2019 (64-Bit) -->
<svg xmlns="http://www.w3.org/2000/svg" xml:space="preserve" width="1.66666in" height="1.66666in" version="1.1" style="shape-rendering:geometricPrecision; text-rendering:geometricPrecision; image-rendering:optimizeQuality; fill-rule:evenodd; clip-rule:evenodd"
viewBox="0 0 1666.66 1666.66"
 xmlns:xlink="http://www.w3.org/1999/xlink"
 xmlns:xodm="http://www.corel.com/coreldraw/odm/2003">
 <defs>
  <style type="text/css">
   <![CDATA[
    .str0 {stroke:#848688;stroke-width:13.33;stroke-miterlimit:2.61313}
    .fil0 {fill:none}
    .fil1 {fill:#848688}
   ]]>
  </style>
 </defs>
 <g id="Layer_x0020_1">
  <metadata id="CorelCorpID_0Corel-Layer"/>
  <rect class="fil0 str0" x="-0.03" y="-0" width="1666.67" height="1666.67"/>
  <g id="_1483605311216">
   <rect class="fil1" x="391.65" y="370.86" width="36.91" height="36.91"/>
   <rect class="fil1" x="465.48" y="370.86" width="36.91" height="36.91"/>
   <rect class="fil1" x="539.31" y="370.86" width="36.91" height="36.91"/>
   <path class="fil1" d="M1203.75 536.97l-36.91 0c0,30.53 -24.84,55.37 -55.37,55.37l0 36.91c30.53,0 55.37,24.84 55.37,55.37l36.91 0c0,-30.53 24.84,-55.37 55.37,-55.37l0 -36.91c-30.53,0 -55.37,-24.84 -55.37,-55.37zm-18.46 92.86c-5.39,-7.26 -11.78,-13.64 -19.03,-19.03 7.25,-5.39 13.64,-11.78 19.03,-19.03 5.39,7.25 11.78,13.64 19.03,19.03 -7.26,5.39 -13.64,11.78 -19.03,19.03z"/>
   <path class="fil1" d="M1314.49 333.94l-36.91 0c0,30.53 -24.84,55.37 -55.37,55.37l0 36.91c30.53,0 55.37,24.84 55.37,55.37l36.91 0c0,-30.53 24.85,-55.37 55.37,-55.37l0 -36.91c-30.53,0 -55.37,-24.84 -55.37,-55.37zm-18.46 92.85c-5.39,-7.25 -11.77,-13.64 -19.03,-19.03 7.26,-5.39 13.64,-11.78 19.03,-19.03 5.39,7.25 11.78,13.64 19.03,19.03 -7.26,5.39 -13.64,11.78 -19.03,19.03z"/>
   <path class="fil1" d="M953.09 1336.22c-185.45,-15.69 -397.48,-85.21 -567.19,-186.04l-50.33 -29.88c7.5,-17.54 11.83,-35.86 16.06,-53.71 1.26,-5.35 2.53,-10.69 3.86,-15.96 3.89,-15.26 8.21,-40.15 13.21,-68.92 7.2,-41.44 16.15,-93 24.24,-113.73l110.56 -283.35c2.42,-6.19 4.61,-12.85 6.87,-19.66 5.98,-18.2 12.18,-37.04 23.77,-47.23 6.54,-5.76 15.04,-10.04 23.26,-13.82 0.96,-0.43 1.86,-0.94 2.69,-1.53l218.77 -167.53c10.96,-8.44 26.17,-8.33 36.98,0.37l109.71 87.76c6.94,5.56 11.04,13.84 11.22,22.74 0.19,8.9 -3.52,17.35 -10.22,23.22l-69.99 61.22c-11.89,10.39 -29.83,9.74 -40.96,-1.35 -6.39,-6.39 -9.52,-15.17 -8.64,-24.16 0.91,-8.97 5.72,-17 13.24,-22l6.2 -4.15 -20.5 -30.67 -6.19 4.13c-16.74,11.15 -27.48,29.03 -29.48,49.06 -1.99,20.02 5.04,39.66 19.27,53.89 24.82,24.84 64.96,26.17 91.34,3.04l58.86 -51.49 18.11 27.17 -110.57 94.79 -132.1 -16.52c2.01,-9.45 4.32,-18.84 7.02,-28.15l-35.44 -10.28c-12.39,42.62 -18.11,86.71 -17.09,131.1 0.55,23.83 3.1,47.56 5.57,70.52 2.88,26.98 5.61,52.47 5.44,78.3 -0.5,77.31 -30.45,149.5 -80.12,193.04l24.33 27.76c35.16,-30.82 61.2,-72.41 76.63,-119.97 5.57,-1.86 12.66,-1.73 19.62,-1.14 24.23,2.16 47.76,8.8 69.86,18.75 -9.01,14.47 -16.35,29.92 -21.82,46.2l35 11.76c4.76,-14.19 11.3,-27.63 19.32,-40.2 0.44,0.3 0.93,0.52 1.35,0.81l17.7 -25.82c34.78,-38.94 86.01,-66.09 145.61,-75.01 89.24,-13.38 172.2,17.22 216.89,79.68l30.03 -21.48c-18.53,-25.89 -42.56,-47.06 -70.28,-63.12 53.47,-44.5 130.86,-60.52 196.84,-37.59l12.11 -34.87c-83.2,-28.98 -181.69,-5.54 -244.94,55.26 -43.93,-16.74 -94.24,-22.17 -146.09,-14.38 -69.01,10.3 -128.48,42.3 -168.95,88.35 -27.94,-13.68 -58.27,-22.3 -89.39,-25.09 -4.08,-0.37 -8.45,-0.54 -12.92,-0.5 3.84,-20.06 6,-40.85 6.13,-62.18 0.19,-27.94 -2.79,-55.67 -5.67,-82.48 -2.38,-22.2 -4.83,-45.16 -5.35,-67.46 -0.44,-18.53 0.59,-37.01 2.73,-55.33l141.49 17.68c0.81,0.06 1.59,0.11 2.34,0.11 4.37,0 8.65,-1.57 12,-4.45l129.2 -110.74c7.11,-6.07 8.53,-16.48 3.36,-24.23l-32.37 -48.58c5.52,-10.11 8.69,-21.43 8.43,-33.28 -0.43,-19.86 -9.6,-38.37 -25.08,-50.77l-109.69 -87.76c-24.14,-19.31 -58.1,-19.6 -82.57,-0.78l-208.99 160.8 -6.83 4.67c-9.87,4.6 -21.1,10.47 -30.75,18.96 -19.12,16.81 -27.3,41.56 -34.48,63.42 -2.01,6.15 -4,12.18 -6.18,17.79l-110.56 283.35c-9.43,24.18 -17.98,73.33 -26.23,120.83 -4.67,26.85 -9.06,52.23 -12.61,66.13 -1.4,5.48 -2.71,11.02 -4.02,16.56 -5.17,21.89 -10.06,42.54 -20.25,60.11 -5.06,8.75 -2.14,19.95 6.54,25.1l65.02 38.63c174.29,103.53 392.2,174.95 582.96,191.09 14.78,1.25 33.41,1.99 54.67,1.99 106.11,0 277.28,-18.57 358.49,-85.51l-23.46 -28.48c-83.87,69.14 -293.19,83.07 -386.58,75.21z"/>
  </g>
 </g>
</svg>
