<?xml version="1.0" encoding="UTF-8"?>
<!DOCTYPE svg PUBLIC "-//W3C//DTD SVG 1.1//EN" "http://www.w3.org/Graphics/SVG/1.1/DTD/svg11.dtd">
<!-- Creator: CorelDRAW 2019 (64-Bit) -->
<svg xmlns="http://www.w3.org/2000/svg" xml:space="preserve" width="1.66666in" height="1.66666in" version="1.1" style="shape-rendering:geometricPrecision; text-rendering:geometricPrecision; image-rendering:optimizeQuality; fill-rule:evenodd; clip-rule:evenodd"
viewBox="0 0 1666.66 1666.66"
 xmlns:xlink="http://www.w3.org/1999/xlink"
 xmlns:xodm="http://www.corel.com/coreldraw/odm/2003">
 <defs>
  <style type="text/css">
   <![CDATA[
    .str0 {stroke:#848688;stroke-width:13.33;stroke-miterlimit:2.61313}
    .fil0 {fill:none}
    .fil1 {fill:#848688}
   ]]>
  </style>
 </defs>
 <g id="Layer_x0020_1">
  <metadata id="CorelCorpID_0Corel-Layer"/>
  <rect class="fil0 str0" x="-0.03" y="-0" width="1666.67" height="1666.67"/>
  <path class="fil1" d="M830.57 1232.55c-28.8,0 -57.58,-5.81 -84.24,-17.4l-127.45 -55.41c-46.11,-20.06 -94.86,-32.76 -144.9,-37.76l-41.85 -4.19c-6.89,-0.69 -12.13,-6.48 -12.13,-13.41l0 -131.29c0,-2.91 0.95,-5.75 2.7,-8.07 3.13,-4.19 78.15,-102.19 192.73,-76.69 64.45,14.32 116.34,41.12 148.52,61.09 23.36,14.49 50.75,22.15 79.2,22.15l127.45 0c21.97,0 41.28,11.62 52.07,29.06l109.77 -126.47c21.28,-28.42 56.1,-45.82 92.55,-45.82l8.2 0c4.56,0 8.8,2.3 11.28,6.11 2.49,3.81 2.88,8.63 1.06,12.79l-99.28 225.63c-21.7,49.35 -65.9,86.62 -118.22,99.7l-17.47 4.36 -101.61 40.65c-25,10 -51.7,14.98 -78.38,14.98l0 0zm-383.63 -140.35l29.72 2.98c52.82,5.28 104.29,18.7 152.98,39.87l127.44 55.41c44.81,19.48 96.5,20.25 141.87,2.09l102.44 -40.98c0.57,-0.22 1.15,-0.41 1.74,-0.56l18.35 -4.59c44.3,-11.07 81.72,-42.63 100.09,-84.41l90.56 -205.8c-23.19,3.41 -44.52,15.91 -58.74,34.85l-121.6 140.15c0.02,0.52 0.02,1.04 0.02,1.57 0,33.75 -27.46,61.22 -61.22,61.22l-177.83 0c-23.11,0 -45.96,3.71 -67.89,11.02l-4.95 -12.56 -4.19 -12.8 0.69 -0.22c24.61,-8.2 50.32,-12.37 76.34,-12.37l177.83 0c18.89,0 34.28,-15.38 34.28,-34.28 0,-18.9 -15.37,-34.28 -34.28,-34.28l-127.45 0c-33.48,0 -65.78,-9.06 -93.4,-26.19 -30.4,-18.86 -79.41,-44.17 -140.16,-57.68 -86.78,-19.24 -149.22,47.35 -162.65,63.24l0 114.33 -0.01 0zm0 0z"/>
  <path class="fil1" d="M950.54 825.3c-20.72,0 -43.95,-6.4 -69.53,-19.19 -3.1,-1.56 -5.49,-4.26 -6.66,-7.52 -1.04,-2.92 -25.11,-72.17 13.14,-123.37 27.8,-37.22 80.08,-53.98 155.46,-49.78 6.87,0.38 12.36,5.89 12.7,12.78 0.27,5.35 5.83,131.61 -58.56,173.65 -13.69,8.95 -29.24,13.42 -46.56,13.42l0 0zm-52.35 -40.81c35.39,16.59 63.68,18.22 84.18,4.83 38.18,-24.93 46.43,-98.95 46.63,-137.48 -59.06,-1.44 -99.28,11.87 -119.93,39.5 -24.57,32.91 -15.02,78.17 -10.88,93.15l0 0zm0 0z"/>
  <path class="fil1" d="M744.52 648.79c-23.89,0 -51.44,-5.12 -75.49,-22.73 -40.79,-29.89 -59.54,-86.8 -55.73,-169.14 0.32,-6.88 5.78,-12.42 12.67,-12.83 5.83,-0.33 143.75,-7.69 190.17,61.98 21.61,32.43 19.84,74.9 -5.25,126.26 -1.52,3.12 -4.19,5.54 -7.45,6.73 -1.81,0.67 -27.1,9.74 -58.91,9.74zm54.26 -22.38l0.13 0 -0.13 0zm-158.96 -155.81c-1.17,65.95 14,110.91 45.13,133.72 37.28,27.31 88.17,15.7 104.17,11.04 18.31,-39.73 19.86,-71.45 4.59,-94.35 -28.37,-42.58 -111.55,-50.91 -153.9,-50.41l0 0zm0 0z"/>
  <path class="fil1" d="M849.73 993.77c-0.43,0 -0.85,-0.02 -1.28,-0.06 -7.18,-0.68 -12.55,-6.89 -12.19,-14.09 0.79,-15.85 2.15,-30.88 3.99,-45.12 5.6,-95.33 2.71,-317.34 -137.65,-378.76 -6.81,-2.98 -9.93,-10.92 -6.94,-17.74 2.97,-6.81 10.94,-9.91 17.74,-6.94 82.71,36.19 134.75,126.29 150.45,260.56 1.41,12.03 2.46,23.89 3.25,35.45 36.97,-93.41 93.52,-126.42 96.89,-128.31 6.48,-3.66 14.69,-1.33 18.35,5.13 3.63,6.47 1.35,14.67 -5.1,18.32 -1.43,0.83 -88.15,52.88 -109.92,213.38 -1.66,27.45 -4.05,44.96 -4.27,46.56 -0.93,6.72 -6.67,11.62 -13.33,11.62l0 0zm0 0z"/>
 </g>
</svg>
