<?xml version="1.0" encoding="UTF-8"?>
<!DOCTYPE svg PUBLIC "-//W3C//DTD SVG 1.1//EN" "http://www.w3.org/Graphics/SVG/1.1/DTD/svg11.dtd">
<!-- Creator: CorelDRAW 2018 (64-Bit) -->
<svg xmlns="http://www.w3.org/2000/svg" xml:space="preserve" width="140px" height="51px" version="1.1" style="shape-rendering:geometricPrecision; text-rendering:geometricPrecision; image-rendering:optimizeQuality; fill-rule:evenodd; clip-rule:evenodd"
viewBox="0 0 140 51"
 xmlns:xlink="http://www.w3.org/1999/xlink">
 <defs>
  <style type="text/css">
   <![CDATA[
    .fil3 {fill:#E6E7E8}
    .fil0 {fill:#212121}
    .fil2 {fill:#F58634}
    .fil1 {fill:#00A859}
   ]]>
  </style>
 </defs>
 <g id="Layer_x0020_1">
  <metadata id="CorelCorpID_0Corel-Layer"/>
  <g id="_2122453126896">
   <path class="fil0" d="M50.09 9.15l7.38 0 0.36 0 0 0.35 0 19.32 3.53 0 0 -19.32 0 -0.35 0.35 0 7.5 0 0 -2.76 -19.12 0 0 2.76zm25.91 19.67l0 -9.01 0 -0.35 0.36 0 3.81 0c0.86,0 1.64,0.04 2.33,0.14 0.35,0.05 0.67,0.1 0.96,0.17 0.3,0.08 0.57,0.16 0.83,0.26l0.01 0 0 0 0 0c0.52,0.2 0.98,0.47 1.37,0.8 0.4,0.34 0.72,0.74 0.99,1.21 0.36,0.66 0.64,1.49 0.83,2.51 0.04,0.19 0.07,0.4 0.1,0.6 0.03,0.21 0.05,0.42 0.07,0.64l0 0.01 0.01 0c0.02,0.18 0.04,0.4 0.07,0.65l0 0 0.01 0.14 0.02 0.14 0 0 0 0.01c0.03,0.3 0.05,0.51 0.07,0.74l0 0 0.04 0.53 0 0 0 0 0 0c0.03,0.2 0.07,0.38 0.11,0.56l0 0c0.02,0.09 0.04,0.17 0.07,0.25l3.8 0c-0.02,-0.06 -0.04,-0.11 -0.05,-0.17 -0.07,-0.22 -0.12,-0.42 -0.15,-0.6l0 0c-0.04,-0.26 -0.09,-0.74 -0.14,-1.44l0 0 -0.03 -0.43 0 -0.01 -0.03 -0.48 0 0 -0.01 -0.03 0 0c-0.07,-1.37 -0.27,-2.51 -0.62,-3.41 -0.06,-0.17 -0.13,-0.33 -0.21,-0.49 -0.07,-0.15 -0.15,-0.3 -0.23,-0.43l0 0 -0.01 -0.01 0 0c-0.3,-0.48 -0.69,-0.9 -1.18,-1.25 -0.49,-0.36 -1.07,-0.66 -1.74,-0.89l0 -0.67c0.49,-0.17 0.89,-0.32 1.2,-0.46 0.08,-0.04 0.14,-0.07 0.17,-0.08l0 0c0.05,-0.03 0.1,-0.05 0.15,-0.08l0 0c0.23,-0.13 0.48,-0.29 0.73,-0.5 0.05,-0.04 0.1,-0.08 0.16,-0.13 0.04,-0.04 0.1,-0.08 0.15,-0.13l0.01 0 0 0c0.28,-0.26 0.53,-0.55 0.75,-0.88 0.22,-0.33 0.41,-0.7 0.57,-1.1l0 0c0.13,-0.34 0.23,-0.69 0.31,-1.05l0 0c0.02,-0.09 0.03,-0.16 0.04,-0.22 0.08,-0.44 0.12,-0.9 0.12,-1.38l0 0 0 -0.01c0,-0.73 -0.1,-1.42 -0.32,-2.06 -0.03,-0.11 -0.08,-0.24 -0.13,-0.37 -0.05,-0.12 -0.11,-0.24 -0.16,-0.36l0 0 0 0 0 0c-0.21,-0.42 -0.45,-0.8 -0.73,-1.14 -0.28,-0.33 -0.61,-0.63 -0.96,-0.88l-0.01 -0.01c-0.31,-0.23 -0.67,-0.43 -1.08,-0.59 -0.41,-0.16 -0.87,-0.3 -1.38,-0.39 -0.44,-0.09 -0.93,-0.15 -1.46,-0.2 -0.06,0 -0.17,-0.01 -0.33,-0.02 -0.68,-0.06 -1.44,-0.08 -2.26,-0.08l-0.02 0 -10.51 0 0 22.43 3.53 0zm7.1 -12.13l0 0 -6.74 0 -0.36 0 0 -0.35 0 -6.84 0 -0.35 0.36 0 6.74 0 0 0c0.72,0 1.32,0.03 1.8,0.09 0.25,0.03 0.47,0.07 0.65,0.11 0.2,0.05 0.37,0.1 0.52,0.17l0 0c0.43,0.2 0.79,0.48 1.08,0.85 0.05,0.07 0.1,0.14 0.15,0.22 0.05,0.07 0.1,0.15 0.14,0.24l0.01 0 0 0 0 0c0.13,0.24 0.23,0.51 0.31,0.79l0 0c0.02,0.06 0.03,0.11 0.04,0.16 0.08,0.33 0.12,0.69 0.12,1.08l0 0 0 0c0,0.66 -0.1,1.25 -0.31,1.76 -0.22,0.52 -0.54,0.95 -0.97,1.3l-0.01 0c-0.33,0.27 -0.81,0.47 -1.41,0.59 -0.58,0.12 -1.28,0.18 -2.12,0.18zm29.61 -7.54l0 -2.76 -6.97 0c-0.51,0 -1,0.01 -1.46,0.05 -0.46,0.03 -0.91,0.08 -1.34,0.14l0 0c-0.61,0.09 -1.16,0.21 -1.64,0.37 -0.08,0.02 -0.18,0.06 -0.28,0.09 -0.09,0.04 -0.18,0.07 -0.26,0.1l0 0 0 0 0 0.01c-0.31,0.12 -0.6,0.27 -0.89,0.44 -0.29,0.17 -0.56,0.36 -0.82,0.57l0 0c-0.42,0.33 -0.8,0.69 -1.15,1.09 -0.36,0.4 -0.68,0.84 -0.96,1.31l0 0c-0.41,0.67 -0.75,1.42 -1.02,2.24 -0.05,0.16 -0.1,0.32 -0.14,0.49 -0.05,0.15 -0.09,0.32 -0.13,0.51l0 0 -0.01 0 0 0c-0.29,1.23 -0.44,2.55 -0.44,3.96l0 0c0,2.52 0.44,4.67 1.31,6.42 0.17,0.34 0.35,0.66 0.55,0.97 0.2,0.31 0.42,0.6 0.65,0.88l0 0 0 0c0.29,0.34 0.59,0.64 0.91,0.91 0.33,0.26 0.67,0.49 1.03,0.69 0.52,0.29 1.13,0.52 1.81,0.7 0.14,0.04 0.28,0.07 0.41,0.1 0.14,0.03 0.28,0.07 0.43,0.09l0.01 0c0.44,0.09 0.91,0.15 1.4,0.2 0.05,0.01 0.15,0.02 0.3,0.03 0.62,0.05 1.27,0.08 1.95,0.08l0 -0.01 0.02 0 6.73 0 0 -2.76 -6.24 0c-1.18,0 -2.21,-0.13 -3.1,-0.4 -0.9,-0.28 -1.65,-0.7 -2.25,-1.25 -0.85,-0.8 -1.41,-1.9 -1.69,-3.3 -0.05,-0.26 -0.09,-0.54 -0.13,-0.84 -0.03,-0.28 -0.05,-0.59 -0.06,-0.9l0 -0.04 -0.01 -0.37 0.36 0 13.12 0 0 -2.74 -13.12 0 -0.38 0 0.03 -0.38c0.04,-0.58 0.1,-1.09 0.15,-1.53 0.06,-0.44 0.13,-0.8 0.2,-1.08l0 0c0.1,-0.41 0.26,-0.82 0.48,-1.21l0 0c0.04,-0.08 0.09,-0.16 0.13,-0.23 0.06,-0.08 0.1,-0.16 0.15,-0.22l0 -0.01 0 0c0.3,-0.45 0.64,-0.83 1.02,-1.14 0.39,-0.32 0.82,-0.57 1.28,-0.74l0 0c0.38,-0.15 0.83,-0.27 1.34,-0.35 0.09,-0.02 0.19,-0.03 0.3,-0.05 0.63,-0.09 1.35,-0.13 2.17,-0.13l0 0 0.01 0 6.24 0zm20.92 0l0 -2.76 -6.96 0c-0.52,0 -1,0.01 -1.46,0.05 -0.47,0.03 -0.91,0.08 -1.35,0.14l0 0c-0.61,0.09 -1.16,0.21 -1.64,0.37 -0.08,0.02 -0.17,0.06 -0.27,0.09 -0.1,0.04 -0.18,0.07 -0.26,0.1l-0.01 0 0 0 0 0.01c-0.31,0.12 -0.6,0.27 -0.88,0.44 -0.29,0.17 -0.57,0.36 -0.83,0.57l0 0c-0.42,0.33 -0.8,0.69 -1.15,1.09 -0.35,0.4 -0.67,0.84 -0.96,1.31l0 0c-0.41,0.67 -0.75,1.42 -1.01,2.24 -0.06,0.16 -0.11,0.32 -0.15,0.49 -0.04,0.15 -0.09,0.32 -0.13,0.51l0 0 0 0 0 0c-0.3,1.23 -0.44,2.55 -0.44,3.96l-0.01 0c0,2.52 0.44,4.67 1.31,6.42 0.17,0.34 0.35,0.66 0.55,0.97 0.2,0.31 0.42,0.6 0.65,0.88l0 0 0 0c0.29,0.34 0.6,0.64 0.92,0.91 0.32,0.26 0.66,0.49 1.02,0.69 0.53,0.29 1.13,0.52 1.81,0.7 0.14,0.04 0.28,0.07 0.42,0.1 0.13,0.03 0.28,0.07 0.43,0.09l0 0c0.44,0.09 0.91,0.15 1.41,0.2 0.05,0.01 0.14,0.02 0.29,0.03 0.62,0.05 1.28,0.08 1.96,0.08l0 -0.01 0.01 0 6.73 0 0 -2.76 -6.23 0c-1.18,0 -2.22,-0.13 -3.1,-0.4 -0.91,-0.28 -1.66,-0.7 -2.26,-1.25 -0.85,-0.8 -1.41,-1.9 -1.69,-3.3 -0.05,-0.26 -0.09,-0.54 -0.12,-0.84 -0.03,-0.28 -0.06,-0.59 -0.07,-0.9l0 -0.04 -0.01 -0.37 0.36 0 13.12 0 0 -2.74 -13.12 0 -0.38 0 0.03 -0.38c0.05,-0.58 0.1,-1.09 0.16,-1.53 0.06,-0.44 0.12,-0.8 0.19,-1.08l0 0c0.1,-0.41 0.26,-0.82 0.48,-1.21l0 0c0.05,-0.08 0.09,-0.16 0.14,-0.23 0.05,-0.08 0.1,-0.16 0.14,-0.22l0 -0.01 0.01 0c0.29,-0.45 0.63,-0.83 1.02,-1.14 0.38,-0.32 0.81,-0.57 1.28,-0.74l0 0c0.37,-0.15 0.82,-0.27 1.33,-0.35 0.09,-0.02 0.19,-0.03 0.3,-0.05 0.63,-0.09 1.36,-0.13 2.17,-0.13l0 0 0.02 0 6.23 0z"/>
   <path class="fil0" d="M54.83 35.08l3.64 0 0.18 0 0 0.18 0 9.53 1.74 0 0 -9.53 0 -0.18 0.17 0 3.7 0 0 -1.35 -9.43 0 0 1.35zm14.25 -1.36l0 11.07 1.74 0 0 -11.07 -1.74 0zm9.32 0l-1.74 0 0 6.49c0,0.47 0.02,0.89 0.06,1.26 0.04,0.37 0.1,0.69 0.17,0.97 0.08,0.27 0.18,0.51 0.31,0.73 0.12,0.22 0.27,0.42 0.45,0.59 0.19,0.19 0.4,0.35 0.63,0.48 0.23,0.13 0.47,0.24 0.73,0.31 0.27,0.08 0.59,0.14 0.97,0.18 0.38,0.04 0.83,0.06 1.33,0.06l2.52 0 0 -1.36 -2.22 0c-0.62,0 -1.15,-0.06 -1.58,-0.17 -0.44,-0.11 -0.79,-0.29 -1.04,-0.53l0 0c-0.07,-0.07 -0.14,-0.15 -0.2,-0.25 -0.05,-0.09 -0.11,-0.2 -0.15,-0.32l0 0c-0.04,-0.11 -0.08,-0.25 -0.11,-0.39 -0.04,-0.14 -0.06,-0.3 -0.08,-0.47 -0.02,-0.17 -0.03,-0.36 -0.04,-0.56 -0.01,-0.21 -0.01,-0.43 -0.01,-0.66l0 -6.36zm18.35 1.36l0 -1.35 -3.43 0c-0.26,0 -0.49,0 -0.72,0.02 -0.23,0.01 -0.45,0.04 -0.66,0.07l-0.01 0c-0.29,0.04 -0.56,0.1 -0.8,0.18 -0.05,0.01 -0.09,0.03 -0.14,0.05 -0.04,0.01 -0.08,0.03 -0.13,0.05l0 0 0 0 0 0c-0.15,0.06 -0.3,0.13 -0.44,0.22 -0.14,0.08 -0.27,0.17 -0.4,0.28l0 0c-0.21,0.16 -0.4,0.34 -0.57,0.54 -0.17,0.19 -0.33,0.41 -0.47,0.64l0 0c-0.2,0.33 -0.37,0.7 -0.5,1.1l0 0c-0.03,0.09 -0.05,0.17 -0.08,0.24 -0.02,0.08 -0.04,0.17 -0.06,0.26l0 0 0 0 0 0c-0.06,0.25 -0.11,0.51 -0.14,0.78l0 0 -0.02 0.16 0 0c-0.04,0.32 -0.06,0.66 -0.06,1l0 0 0 0.01c0,1.25 0.21,2.31 0.64,3.17 0.09,0.17 0.18,0.32 0.27,0.48 0.1,0.15 0.21,0.29 0.32,0.43l0 0 0.01 0c0.14,0.17 0.29,0.32 0.45,0.45 0.16,0.13 0.33,0.24 0.5,0.34 0.26,0.14 0.56,0.26 0.89,0.35l0 0c0.08,0.02 0.15,0.03 0.21,0.05 0.06,0.01 0.13,0.03 0.21,0.04l0.01 0c0.21,0.04 0.44,0.07 0.68,0.1l0 0 0.15 0.01 0 0c0.3,0.03 0.62,0.04 0.96,0.04l0 0 0.02 0 3.31 0 0 -1.36 -3.07 0c-0.58,0 -1.09,-0.07 -1.53,-0.2 -0.45,-0.14 -0.82,-0.34 -1.11,-0.62 -0.42,-0.38 -0.7,-0.92 -0.83,-1.61 -0.03,-0.13 -0.05,-0.27 -0.07,-0.41 -0.01,-0.14 -0.03,-0.29 -0.03,-0.45l0 -0.03 -0.01 -0.19 0.18 0 6.47 0 0 -1.34 -6.47 0 -0.19 0 0.02 -0.19c0.02,-0.29 0.05,-0.54 0.07,-0.76 0.03,-0.22 0.06,-0.4 0.1,-0.53 0.05,-0.21 0.13,-0.41 0.24,-0.6 0.01,-0.03 0.04,-0.07 0.06,-0.11l0 0c0.02,-0.04 0.05,-0.07 0.07,-0.11l0.01 -0.01 0 0c0.21,-0.31 0.47,-0.56 0.76,-0.74l0 0c0.06,-0.04 0.12,-0.07 0.18,-0.1 0.06,-0.03 0.13,-0.06 0.19,-0.09l0 0 0 0 0 0c0.22,-0.08 0.5,-0.15 0.81,-0.19 0.32,-0.05 0.68,-0.07 1.08,-0.07l3.07 0z"/>
   <path class="fil1" d="M8.32 3.31l31.45 0 0 44.38 -31.45 0 0 -44.38zm-2.3 -2.31l36.06 0 0 49 -36.06 0 0 -49z"/>
   <path class="fil1" d="M22.67 15.27c-0.35,-0.23 -2.49,-2.46 -2.72,-2.69 -0.43,-0.43 -0.83,-1.06 -1.58,-1.08 -0.82,-0.03 -1.4,0.64 -1.4,1.45 0,0.65 0.52,1.05 0.86,1.39l4.65 4.64c0.32,0.32 0.19,1.35 0.19,2.14 0,1.55 0,3.1 0,4.65l-5.05 -5.02c-0.47,-0.48 -1.21,-1.46 -1.92,-1.46 -1.04,0 -1.77,1.16 -1.26,2.04 0.24,0.42 0.65,0.77 1.01,1.1l1.57 1.52c0.14,0.14 0.21,0.23 0.34,0.36l2.65 2.64c0.76,0.66 1.48,1.48 2.22,2.21 0.43,0.42 0.45,0.27 0.45,1.04 -0.03,1.99 -0.01,3.99 -0.01,5.99 -0.49,-0.33 -7.55,-7.52 -8.53,-8.51 -0.37,-0.36 -0.85,-0.93 -1.54,-0.93 -0.59,0 -1.33,0.57 -1.33,1.13 0,1.14 0.42,1.24 1.21,2.02l1.48 1.48c0.99,0.99 1.93,1.93 2.92,2.92l4.37 4.37c0.24,0.24 1.42,1.26 1.42,1.53l0 9.8 2.75 0 0 -9.8c0,-0.28 2.11,-2.17 2.47,-2.53 0.59,-0.6 1.17,-1.29 1.81,-1.85 0.16,-0.14 0.22,-0.16 0.39,-0.32 0.14,-0.14 0.24,-0.24 0.38,-0.39l5.07 -5.07c0.83,-0.82 1.29,-1 1.29,-2.16 0,-0.98 -1.48,-1.45 -2.2,-0.79l-1.5 1.45c-1.34,1.12 -6.96,7.15 -7.71,7.65l0 -5c0,-0.45 -0.13,-1.3 0.09,-1.61 0.39,-0.58 7.97,-7.67 8.24,-8.44 0.44,-1.25 -1.04,-2.64 -2.4,-1.27 -0.87,0.88 -5.46,5.58 -5.93,5.9l-0.01 -6.28c0.01,-0.34 -0.01,-0.28 0.16,-0.47 1.15,-1.24 3.33,-3.32 4.66,-4.64 0.41,-0.42 0.89,-0.84 0.89,-1.57 0,-0.74 -0.64,-1.32 -1.33,-1.32 -0.88,-0.01 -1.28,0.75 -1.79,1.22l-0.18 0.18c-0.52,0.58 -1.93,2.07 -2.4,2.38 0,-0.78 0.1,-5.76 -0.06,-6.28 -0.39,-1.25 -2.2,-1.33 -2.6,-0.04 -0.21,0.64 -0.09,5.44 -0.09,6.32z"/>
   <polygon class="fil2" points="100.74,38.4 111.3,38.4 111.3,40.12 100.74,40.12 "/>
   <polygon class="fil3" points="112.08,38.4 122.64,38.4 122.64,40.12 112.08,40.12 "/>
   <polygon class="fil1" points="123.43,38.4 133.98,38.4 133.98,40.12 123.43,40.12 "/>
  </g>
 </g>
</svg>
