<?xml version="1.0" encoding="UTF-8"?>
<!DOCTYPE svg PUBLIC "-//W3C//DTD SVG 1.1//EN" "http://www.w3.org/Graphics/SVG/1.1/DTD/svg11.dtd">
<!-- Creator: CorelDRAW 2019 (64-Bit) -->
<svg xmlns="http://www.w3.org/2000/svg" xml:space="preserve" width="1.66666in" height="1.66666in" version="1.1" style="shape-rendering:geometricPrecision; text-rendering:geometricPrecision; image-rendering:optimizeQuality; fill-rule:evenodd; clip-rule:evenodd"
viewBox="0 0 1666.66 1666.66"
 xmlns:xlink="http://www.w3.org/1999/xlink"
 xmlns:xodm="http://www.corel.com/coreldraw/odm/2003">
 <defs>
  <style type="text/css">
   <![CDATA[
    .str0 {stroke:#848688;stroke-width:13.33;stroke-miterlimit:2.61313}
    .fil0 {fill:none}
    .fil1 {fill:#848688}
   ]]>
  </style>
 </defs>
 <g id="Layer_x0020_1">
  <metadata id="CorelCorpID_0Corel-Layer"/>
  <rect class="fil0 str0" x="-0.03" y="-0" width="1666.67" height="1666.67"/>
  <g id="_1449102682848">
   <path class="fil1" d="M1008.34 657.34c-9.63,0 -17.45,7.8 -17.45,17.44 0,9.64 7.81,17.45 17.45,17.45 9.65,0 17.44,-7.81 17.44,-17.45 0,-9.65 -7.8,-17.44 -17.44,-17.44zm0 0z"/>
   <path class="fil1" d="M691.31 974.37c-9.65,0 -17.45,7.82 -17.45,17.45 0,9.65 7.8,17.45 17.45,17.45 9.63,0 17.45,-7.8 17.45,-17.45 0,-9.63 -7.82,-17.45 -17.45,-17.45zm0 0z"/>
   <path class="fil1" d="M1274.81 493.97c-5.89,-1.37 -12.08,0.41 -16.33,4.7l-72.34 72.91 -34.68 0 -38.18 -39.55 0 -35.16 71.3 -72.37c4.22,-4.28 5.94,-10.43 4.54,-16.29 -1.39,-5.85 -5.7,-10.57 -11.39,-12.49 -17.91,-6.04 -36.66,-9.1 -55.72,-9.1 -56.83,0 -108.46,26.5 -141.65,72.7 -31.07,43.25 -40.65,96.26 -26.93,146.99l-128.52 128.53 -214.13 -214.62 0 -42.12c0,-6.13 -3.22,-11.81 -8.47,-14.96l-123.37 -74.03c-6.87,-4.13 -15.65,-3.04 -21.31,2.62l-49.35 49.34c-5.66,5.67 -6.74,14.45 -2.63,21.32l74.02 123.37c3.15,5.26 8.83,8.46 14.96,8.47l42.11 0.01 214.15 214.62 -128.04 128.04c-50.73,-13.71 -103.76,-4.12 -147.04,26.96 -46.18,33.17 -72.66,84.79 -72.66,141.62 0,19.06 3.06,37.81 9.1,55.71 1.93,5.73 6.69,10.06 12.58,11.43 5.89,1.37 12.07,-0.41 16.34,-4.7l72.33 -72.9 34.87 0 39.73 39.73 0 34.87 -72.9 72.33c-4.3,4.26 -6.07,10.44 -4.7,16.34 1.36,5.89 5.69,10.65 11.43,12.58 17.9,6.04 36.65,9.1 55.71,9.1 56.83,0 108.44,-26.48 141.62,-72.66 31.09,-43.28 40.68,-96.3 26.96,-147.03l102.83 -102.83 23.56 25.59 -10.81 10.8c-6.81,6.82 -6.81,17.87 0,24.68 6.81,6.81 17.86,6.81 24.68,0l9.79 -9.79 221.01 240.07c0.16,0.18 0.33,0.35 0.5,0.52 40.89,40.89 107.15,40.91 148.07,-0.01 40.8,-40.82 40.8,-107.24 0,-148.06 -0.18,-0.18 -0.36,-0.35 -0.54,-0.52l-240.44 -220.59 9.68 -9.68c6.82,-6.81 6.82,-17.86 0,-24.67 -6.81,-6.81 -17.85,-6.81 -24.68,0l-10.74 10.74 -25.63 -23.53 103.33 -103.33c14.69,3.93 29.85,5.92 45.2,5.92 96.21,0 174.48,-78.28 174.48,-174.48 0,-19.06 -3.06,-37.81 -9.1,-55.72 -1.93,-5.73 -6.69,-10.06 -12.58,-11.42l0 0zm-718.49 70.52c-3.27,-3.28 -7.71,-4.95 -12.34,-4.95l-39.46 -0.01 -61.93 -103.4 30.08 -30.08 103.22 61.94 0 39.46c0,4.62 1.83,9.05 5.09,12.32l219.26 219.75 -24.68 24.67 -219.23 -219.72zm443.83 340.36l241.26 221.33c26.95,27.24 26.87,71.33 -0.25,98.47 -27.19,27.18 -71.19,27.26 -98.48,0.24l-221.74 -240.85 79.2 -79.19zm-25.74 -23.62l-77.12 77.11 -23.56 -25.58 75.04 -75.05 25.63 23.53zm147.6 -180.53c-15.26,0 -30.27,-2.44 -44.59,-7.27 -6.28,-2.11 -13.22,-0.48 -17.91,4.2 -87.48,87.48 -275.96,275.96 -345.37,345.37 -4.69,4.69 -6.32,11.63 -4.2,17.91 14.5,43.07 7.57,89.01 -19.04,126.05 -26.54,36.94 -67.82,58.13 -113.27,58.13 -5.11,0 -10.19,-0.28 -15.21,-0.81l55.42 -54.99c3.3,-3.27 5.16,-7.73 5.16,-12.39l0 -49.36c0,-4.63 -1.84,-9.07 -5.11,-12.34l-49.95 -49.95c-3.27,-3.27 -7.71,-5.11 -12.33,-5.11l-49.36 0c-4.65,0 -9.11,1.86 -12.39,5.16l-54.98 55.42c-0.55,-5.03 -0.82,-10.11 -0.82,-15.21 0,-45.46 21.19,-86.74 58.13,-113.28 37.04,-26.61 82.98,-33.55 126.06,-19.04 6.28,2.12 13.22,0.49 17.91,-4.2 0.96,-0.95 345.12,-345.12 345.37,-345.37 4.69,-4.69 6.31,-11.62 4.2,-17.91 -14.51,-43.07 -7.59,-89 19,-126.01 26.56,-36.97 67.85,-58.17 113.31,-58.17 5.26,0 10.49,0.29 15.67,0.87l-54.27 55.08c-3.22,3.26 -5.02,7.66 -5.02,12.24l0 49.36c0,4.53 1.75,8.87 4.89,12.12l48.21 49.95c3.28,3.41 7.82,5.33 12.56,5.33l49.36 0c4.65,0 9.1,-1.85 12.38,-5.16l54.98 -55.41c0.55,5.03 0.82,10.11 0.82,15.21 0,76.96 -62.62,139.58 -139.58,139.58l0 0zm0 0z"/>
   <path class="fil1" d="M946.66 711.8l-218.35 218.34c-6.81,6.81 -6.81,17.86 0,24.68 6.81,6.81 17.86,6.81 24.68,0l218.35 -218.35c6.81,-6.81 6.81,-17.86 0,-24.67 -6.82,-6.82 -17.87,-6.82 -24.68,0zm0 0z"/>
   <path class="fil1" d="M1167.15 1175.31c6.81,6.8 17.87,6.8 24.68,-0.04 6.8,-6.82 6.78,-17.87 -0.04,-24.67l-157.28 -156.77c-6.82,-6.8 -17.88,-6.78 -24.67,0.04 -6.81,6.83 -6.79,17.87 0.04,24.67l157.28 156.77zm0 0z"/>
  </g>
 </g>
</svg>
