<?xml version="1.0" encoding="UTF-8"?>
<!DOCTYPE svg PUBLIC "-//W3C//DTD SVG 1.1//EN" "http://www.w3.org/Graphics/SVG/1.1/DTD/svg11.dtd">
<!-- Creator: CorelDRAW 2019 (64-Bit) -->
<svg xmlns="http://www.w3.org/2000/svg" xml:space="preserve" width="1.66666in" height="1.66666in" version="1.1" style="shape-rendering:geometricPrecision; text-rendering:geometricPrecision; image-rendering:optimizeQuality; fill-rule:evenodd; clip-rule:evenodd"
viewBox="0 0 1666.66 1666.66"
 xmlns:xlink="http://www.w3.org/1999/xlink"
 xmlns:xodm="http://www.corel.com/coreldraw/odm/2003">
 <defs>
  <style type="text/css">
   <![CDATA[
    .str0 {stroke:#848688;stroke-width:13.33;stroke-miterlimit:2.61313}
    .fil0 {fill:none}
    .fil1 {fill:#848688}
   ]]>
  </style>
 </defs>
 <g id="Layer_x0020_1">
  <metadata id="CorelCorpID_0Corel-Layer"/>
  <rect class="fil0 str0" x="-0.03" y="-0" width="1666.67" height="1666.67"/>
  <g id="_1447880609984">
   <g id="XMLID_809_">
    <path id="XMLID_908_" class="fil1" d="M1201.76 1022.46l-63.62 -48.15 -84.84 3.43 -25.01 14.32 124.93 94.54c17.73,13.42 42.95,9.91 56.35,-7.8 13.41,-17.72 9.92,-42.94 -7.8,-56.35z"/>
    <circle id="XMLID_1140_" class="fil1" cx="636.75" cy="695.93" r="69.47"/>
    <path id="XMLID_1145_" class="fil1" d="M751.22 656.65l-15.87 71.72c0,0 -50.19,45.92 -67.77,62.33 -18.93,17.7 -19.93,47.4 -2.22,66.33 8.11,8.67 157.92,168.87 165.58,177.06l0 -0.05c12.53,12.39 32.23,15.47 48.26,6.29l164.93 -94.42 141.59 -5.74c22.24,-0.9 39.46,-19.67 38.57,-41.82 -0.9,-22.22 -19.64,-39.47 -41.82,-38.57l-151.41 6.13c-6.46,0.26 -12.75,2.07 -18.36,5.28l-173.46 99.3 0 0 0 0 94.83 -86.1 -57.06 -61.02 -110.74 17.6 128.35 -52.98 0 0c10.13,-4.35 17.7,-13.52 19.76,-24.76l12.35 -67.18 12.35 -67.18c3.36,-18.31 -8.84,-35.7 -26.93,-39.02 -18.14,-3.33 -35.67,8.74 -39.02,26.91 0,0.01 -0,0.01 -0,0.02 -2.47,13.45 -18.37,100.15 -20.92,114.05l0 0 -117.17 50.25 69.2 -53.74 15.17 -68.55c1.76,-7.95 0.56,-16.26 -3.36,-23.39l-75.85 -137.93c-8.93,-16.22 -29.3,-22.14 -45.53,-13.22 -16.22,8.92 -22.14,29.3 -13.22,45.53l69.77 126.87z"/>
    <path id="XMLID_1146_" class="fil1" d="M1224.33 1141.88l-781.99 0c-12.33,0 -22.34,10 -22.34,22.34 0,12.34 10,22.34 22.34,22.34l781.99 0c12.33,0 22.34,-10 22.34,-22.34 0,-12.34 -10,-22.34 -22.34,-22.34z"/>
    <path id="XMLID_1147_" class="fil1" d="M595.36 914.68c-8.13,-5.61 -19.25,-3.58 -24.86,4.54 -5.61,8.12 -3.58,19.25 4.54,24.86l201.47 139.22c8.13,5.61 19.26,3.57 24.86,-4.54 5.61,-8.12 3.57,-19.25 -4.54,-24.86l-201.47 -139.22z"/>
    <path id="XMLID_1148_" class="fil1" d="M565.01 1104.64l143.55 18.31c9.74,1.25 18.74,-5.63 19.99,-15.46 1.25,-9.79 -5.68,-18.74 -15.47,-19.99l-143.55 -18.31c-9.79,-1.26 -18.74,5.68 -19.99,15.47 -1.25,9.79 5.67,18.74 15.46,19.99z"/>
   </g>
  </g>
  <g id="_1447880608896">
  </g>
  <g id="_1447880607584">
  </g>
  <g id="_1447880604896">
  </g>
  <g id="_1447880603040">
  </g>
  <g id="_1447880601696">
  </g>
  <g id="_1447880599488">
  </g>
  <g id="_1447880595008">
  </g>
  <g id="_1447880590848">
  </g>
  <g id="_1447880589280">
  </g>
  <g id="_1447880581440">
  </g>
  <g id="_1447880633248">
  </g>
  <g id="_1447880624576">
  </g>
  <g id="_1447880619392">
  </g>
  <g id="_1447880617792">
  </g>
  <g id="_1447880614528">
  </g>
 </g>
</svg>
