<?xml version="1.0" encoding="UTF-8"?>
<!DOCTYPE svg PUBLIC "-//W3C//DTD SVG 1.1//EN" "http://www.w3.org/Graphics/SVG/1.1/DTD/svg11.dtd">
<!-- Creator: CorelDRAW 2019 (64-Bit) -->
<svg xmlns="http://www.w3.org/2000/svg" xml:space="preserve" width="1.66666in" height="1.66666in" version="1.1" style="shape-rendering:geometricPrecision; text-rendering:geometricPrecision; image-rendering:optimizeQuality; fill-rule:evenodd; clip-rule:evenodd"
viewBox="0 0 1666.66 1666.66"
 xmlns:xlink="http://www.w3.org/1999/xlink"
 xmlns:xodm="http://www.corel.com/coreldraw/odm/2003">
 <defs>
  <style type="text/css">
   <![CDATA[
    .str0 {stroke:#848688;stroke-width:13.33;stroke-miterlimit:2.61313}
    .fil0 {fill:none}
    .fil1 {fill:#848688}
   ]]>
  </style>
 </defs>
 <g id="Layer_x0020_1">
  <metadata id="CorelCorpID_0Corel-Layer"/>
  <rect class="fil0 str0" x="-0.03" y="-0" width="1666.67" height="1666.67"/>
  <path class="fil1" d="M1239.83 1045.3l-104.02 -44.58c-48.66,-20.85 -89.53,-54.61 -119.02,-98.11 37.71,7.55 76.37,11.37 114.92,11.37 31.13,0 56.45,-25.32 56.45,-56.45 0,-31.13 -25.32,-56.45 -56.45,-56.45l-16.26 0c-27.97,0 -55.92,3.44 -83.08,10.23 -11.84,2.97 -24.45,0.77 -34.58,-6l-1.66 -1.1c-11.05,-7.35 -17.65,-19.69 -17.65,-32.98 0,-29.29 9.68,-58.32 27.24,-81.76 10.63,-14.16 23.73,-25.97 38.91,-35.08l115.71 -69.42c17.16,-10.31 27.82,-29.13 27.82,-49.15 0,-31.61 -25.71,-57.32 -57.32,-57.32l-11.5 0c-10.76,0 -21.28,3.02 -30.39,8.72l-1.79 1.13c-79.42,49.65 -141.5,121.09 -180.16,208.11 -2.15,4.76 -6.89,7.84 -12.1,7.84 -7.27,0 -13.19,-5.92 -13.19,-13.19l0 -130.84c0,-36.2 -29.45,-65.65 -65.64,-65.65 -13.02,0 -25.6,3.81 -36.42,11.03l-1.63 1.08c-25.96,17.31 -41.47,46.28 -41.47,77.48 0,18.45 5.41,36.31 15.65,51.66l44.89 67.34c2.61,3.91 3.98,8.45 3.98,13.16l0 12.57c0,13.08 -10.66,23.74 -23.74,23.74 -9.06,0 -17.19,-5.03 -21.22,-13.13l-53.82 -107.61 -66.15 -119.03c-11.81,-21.24 -34.21,-34.42 -58.48,-34.42 -36.89,0 -66.9,30.02 -66.9,66.9l0 1.76c0,10.34 2.43,20.69 7.06,29.92 39.81,79.63 98.48,149.95 169.73,203.37l14.61 10.95c1.34,1.02 2.15,2.61 2.15,4.31 0,2.97 -2.4,5.37 -5.37,5.37 -15.95,0 -31.63,-2.76 -46.63,-8.21l-83.95 -30.53c-47.03,-17.1 -96.26,-25.78 -146.31,-25.78 -48.92,0 -88.71,39.79 -88.71,88.71 0,48.9 39.79,88.71 88.71,88.71 70.58,0 141.54,-6.39 210.87,-19.02l45.87 -8.35c10.92,-1.97 21.95,2.69 28.11,11.93 6.24,9.37 6.24,21.47 0,30.84l-8.02 12.04c-3.27,4.9 -8.09,8.69 -13.63,10.71l-132.66 48.22c-25.04,9.13 -41.84,33.13 -41.84,59.76 0,35.05 28.52,63.55 64.02,63.55 14.37,0 28.47,-4.95 39.69,-13.92l117.72 -94.2c11.02,-8.8 26.82,-7.89 36.76,2.04 7.94,7.93 10.29,19.77 5.97,30.13l-65.05 156.1c-3.7,8.9 -5.57,18.29 -5.57,27.92l0 29.03c0,40.02 32.57,72.58 72.58,72.58 40.02,0 72.58,-32.56 72.58,-72.58l0 -180.26c0,-11.78 9.58,-21.35 21.37,-21.35 9.21,0 17.35,5.87 20.26,14.61l47.71 143.09c7.15,21.44 27.13,35.84 49.72,35.84l2.07 0c28.9,0 52.42,-23.52 52.42,-52.42 0,-11.29 -3.72,-22.47 -10.48,-31.43 -26.24,-35 -46.56,-73.79 -60.4,-115.31l-4.28 -12.82c-1.95,-5.84 -0.45,-12.16 3.91,-16.5 5.34,-5.34 13.55,-6.28 19.95,-2.29l35.11 21.93c45.92,28.7 84.45,66.11 114.5,111.18 13.84,20.74 36.98,33.14 61.94,33.14l7.24 0c41.05,0 74.45,-33.41 74.45,-74.45 0,-29.82 -17.71,-56.68 -45.11,-68.42l0 0zm-29.34 110.61l-7.24 0c-14.13,0 -27.26,-7.03 -35.1,-18.79 -32.6,-48.9 -74.41,-89.48 -124.24,-120.63l-35.09 -21.94c-19.24,-12.05 -43.85,-9.21 -59.87,6.81 -13.07,13.05 -17.55,32.02 -11.71,49.53l4.28 12.82c14.93,44.81 36.87,86.69 65.21,124.48 2.61,3.44 4.03,7.72 4.03,12.06 0,11.11 -9.05,20.16 -20.16,20.16l-2.07 0c-8.69,0 -16.37,-5.55 -19.13,-13.77l-47.71 -143.1c-7.31,-21.94 -27.74,-36.68 -50.85,-36.68 -29.57,0 -53.63,24.05 -53.63,53.61l0 180.26c0,22.24 -18.09,40.32 -40.32,40.32 -22.22,0 -40.32,-18.08 -40.32,-40.32l0 -29.03c0,-5.35 1.03,-10.58 3.1,-15.52l65.05 -156.09c9.37,-22.48 4.29,-48.13 -12.94,-65.36 -11.63,-11.64 -26.93,-17.55 -42.34,-17.55 -13.16,0 -26.39,4.34 -37.39,13.11l-117.72 94.19c-5.54,4.45 -12.48,6.89 -20.02,6.89 -17.26,0 -31.29,-14.03 -31.29,-31.29 0,-13.1 8.27,-24.94 20.59,-29.42l132.66 -48.22c11.94,-4.34 22.39,-12.53 29.45,-23.13l8.02 -12.03c13.48,-20.24 13.48,-46.39 0,-66.63 -13.29,-19.93 -37.18,-30.03 -60.71,-25.79l-45.89 8.35c-67.44,12.26 -136.45,18.48 -205.1,18.48 -31.13,0 -56.45,-25.32 -56.45,-56.45 0,-31.13 25.32,-56.45 56.45,-56.45 46.28,0 91.79,8.02 135.28,23.84l83.95 30.53c18.55,6.73 37.93,10.15 57.66,10.15 20.74,0 37.63,-16.89 37.63,-37.63 0,-11.77 -5.63,-23.03 -15.05,-30.09l-14.61 -10.95c-67.24,-50.43 -122.64,-116.82 -160.24,-192 -2.37,-4.81 -3.65,-10.16 -3.65,-15.5l0 -1.76c0,-19.11 15.53,-34.65 34.65,-34.65 12.56,0 24.18,6.82 30.27,17.82l65.81 118.42 53.5 106.98c9.54,19.1 28.73,30.97 50.08,30.97 30.89,0 56.02,-25.13 56.02,-56l0 -12.56c0,-11.1 -3.26,-21.84 -9.4,-31.07l-44.89 -67.34c-6.69,-10.03 -10.22,-21.71 -10.22,-33.76 0,-20.41 10.13,-39.32 27.09,-50.65l1.63 -1.08c5.52,-3.68 11.92,-5.61 18.54,-5.61 18.42,0 33.39,14.98 33.39,33.39l0 130.82c0,25.08 20.39,45.47 45.45,45.47 17.93,0 34.24,-10.6 42.19,-28.44 35.4,-79.68 93.19,-146.21 167.15,-192.44l1.8 -1.13c3.98,-2.48 8.57,-3.81 13.28,-3.81l11.5 -0c13.84,0 25.08,11.24 25.08,25.07 0,8.74 -4.66,16.98 -12.16,21.5l-115.69 69.42c-18.78,11.28 -34.95,25.87 -48.09,43.39 -21.76,28.97 -33.73,64.87 -33.73,101.1 0,24.1 11.97,46.47 32.02,59.82l1.65 1.1c17.71,11.8 39.68,15.59 60.29,10.45 24.61,-6.15 49.93,-9.26 75.27,-9.26l16.26 0c13.34,0 24.19,10.85 24.19,24.19 0,13.34 -10.85,24.19 -24.19,24.19 -36.43,0 -72.98,-3.63 -108.65,-10.76l-25.29 -5.05c-4.78,-0.93 -9.66,0.29 -13.39,3.34 -3.74,3.07 -5.9,7.63 -5.9,12.47l0 16.13c0,2.94 0.79,5.79 2.31,8.31 33.42,55.68 82.63,98.63 142.31,124.21l104.02 44.58c15.52,6.66 25.56,21.89 25.56,38.78 0,23.26 -18.92,42.19 -42.19,42.19l0 -0z"/>
  <path class="fil1" d="M1271.57 333.33c-16.48,0 -32,6.42 -43.66,18.09l-37.79 37.79c-11.66,11.66 -18.08,27.16 -18.08,43.65 0,34.06 27.69,61.76 61.76,61.76 16.48,0 32,-6.42 43.66,-18.1l37.79 -37.79c11.67,-11.66 18.08,-27.16 18.08,-43.65 0,-34.06 -27.69,-61.76 -61.76,-61.76zm20.85 82.61l-37.79 37.79c-5.57,5.57 -12.97,8.63 -20.84,8.63 -16.28,0 -29.5,-13.22 -29.5,-29.5 0,-7.87 3.06,-15.28 8.65,-20.85l37.79 -37.79c5.57,-5.56 12.97,-8.63 20.84,-8.63 16.28,0 29.5,13.23 29.5,29.5 0,7.87 -3.06,15.28 -8.64,20.86z"/>
  <path class="fil1" d="M432.86 1123.66c-16.48,0 -31.98,6.42 -43.66,18.08l-37.77 37.81c-11.68,11.66 -18.1,27.15 -18.1,43.66 0,34.03 27.69,61.74 61.76,61.74 16.48,0 31.98,-6.42 43.66,-18.08l37.77 -37.81c11.68,-11.66 18.1,-27.15 18.1,-43.66 0,-34.03 -27.69,-61.74 -61.76,-61.74zm20.85 82.59l-37.77 37.81c-5.58,5.57 -12.98,8.63 -20.86,8.63 -16.27,0 -29.5,-13.22 -29.5,-29.48 0,-7.76 3.15,-15.35 8.65,-20.85l37.78 -37.81c5.58,-5.57 12.98,-8.63 20.85,-8.63 16.28,0 29.5,13.23 29.5,29.48 0,7.78 -3.15,15.35 -8.65,20.85z"/>
  <path class="fil1" d="M453.72 476.53c11.68,11.68 27.18,18.1 43.66,18.1 34.07,0 61.76,-27.7 61.76,-61.76 0,-16.48 -6.42,-32 -18.1,-43.66l-37.79 -37.79c-11.66,-11.66 -27.16,-18.08 -43.65,-18.08 -34.06,0 -61.76,27.69 -61.76,61.76 0,16.48 6.42,32 18.1,43.66l37.77 37.78zm5.89 -110.94c7.87,0 15.27,3.07 20.85,8.65l37.79 37.79c5.56,5.57 8.63,12.97 8.63,20.84 0,16.28 -13.22,29.5 -29.5,29.5 -7.87,0 -15.27,-3.06 -20.85,-8.65l-37.77 -37.77c-5.58,-5.58 -8.65,-12.98 -8.65,-20.86 0,-16.27 13.22,-29.5 29.5,-29.5l0 0z"/>
  <path class="fil1" d="M865.59 784.94c-53.37,0 -96.77,43.41 -96.77,96.78 0,53.37 43.4,96.78 96.77,96.78 53.37,0 96.78,-43.41 96.78,-96.78 0,-53.37 -43.4,-96.78 -96.78,-96.78zm0 161.29c-35.58,0 -64.52,-28.93 -64.52,-64.52 0,-35.58 28.94,-64.52 64.52,-64.52 35.58,0 64.52,28.94 64.52,64.52 0,35.58 -28.94,64.52 -64.52,64.52z"/>
  <path class="fil1" d="M865.59 897.85l0 32.26c26.68,0 48.39,-21.71 48.39,-48.39l-32.26 0c0,8.91 -7.24,16.13 -16.13,16.13z"/>
 </g>
</svg>
